# xmcd
# Track frame offsets:
# 150
# 12115
# 24535
# 36965
# 45750
# 56155
# 62605
# 68822
# 81972
# 90652
# 100297
# 108282
# 119885
# 132227
# 141695
# 149895
# 158075
# 168872
# 178097
# 193185
# 201940
# 213857
# 224225
# 232697
# 243332
# 254672
# 265680
# 274170
#
# Disc length: 3757 seconds
# Revision: 2
# Processed by: cddbd v1.4PL0 Copyright (c) Steve Scherf et al.
# Submitted via: VisiTrax 2.9.5.181 - For more info visit www.synapsa.com
#
DISCID=ac0eab1c
DTITLE=Gene Autry - Gene Autry
DYEAR=1900
DGENRE=Country
TTITLE0=Dixie Cannon Ball
TTITLE1=You Belong to My Heart
TTITLE2=My Old Kentucky Home
TTITLE3=In a Litte Spanish Town
TTITLE4=Down in the Valley
TTITLE5=My adobe Hacienda
TTITLE6=Cowboy Blues
TTITLE7=Under Fiesta Stars
TTITLE8=A Boy from Texas a girl from Tennessee
TTITLE9=The West a Nest and You
TTITLE10=Don't bite the hand
TTITLE11=Vaya Con Dios
TTITLE12=Missouri Waltz
TTITLE13=There's No Back Door From Heaven
TTITLE14=The Gay Ranchero
TTITLE15=Kentucky Baby
TTITLE16=You're the Only Good Thing
TTITLE17=It Happened in Monterey
TTITLE18=When the Day is Done
TTITLE19=You Are My Sunshine
TTITLE20=I Hang My Head and Cry
TTITLE21=San Antonio Rose
TTITLE22=Goodbye Little Darling
TTITLE23=Trouble Mind
TTITLE24=Lonely River
TTITLE25=You're the Lonely Star
TTITLE26=Tweedle o Twill
TTITLE27=Rancho Pillow
EXTD=
EXTT0=
EXTT1=
EXTT2=
EXTT3=
EXTT4=
EXTT5=
EXTT6=
EXTT7=
EXTT8=
EXTT9=
EXTT10=
EXTT11=
EXTT12=
EXTT13=
EXTT14=
EXTT15=
EXTT16=
EXTT17=
EXTT18=
EXTT19=
EXTT20=
EXTT21=
EXTT22=
EXTT23=
EXTT24=
EXTT25=
EXTT26=
EXTT27=
PLAYORDER=
